Coordinates
version=1
nRows=10
nColumns=22
inDegrees=yes

Units are S.I. units (second, meters, Newtons, ...)
If the header above contains a line with 'inDegrees', this indicates whether rotational values are in degrees (yes) or radians (no).

endheader
time	pelvis_tilt	pelvis_list	pelvis_rotation	pelvis_tx	pelvis_ty	pelvis_tz	hip_flexion_r	hip_adduction_r	hip_rotation_r	knee_angle_r	ankle_angle_r	subtalar_angle_r	hip_flexion_l	hip_adduction_l	hip_rotation_l	knee_angle_l	ankle_angle_l	subtalar_angle_l	lumbar_extension	lumbar_bending	lumbar_rotation
      2.58000000	     -0.97538049	     -0.71662987	    -35.98476650	     -0.44350356	      0.90150038	      0.03247943	     -2.96396384	      8.55380078	     11.94436902	    -23.39046127	     16.02519918	     -8.66309734	     22.15156151	    -11.25752103	     -7.23480920	     -7.27927752	      4.34558132	     10.19704470	     -5.86269462	     -2.38611268	      4.10418548
      2.59000000	     -1.05783429	     -0.75650828	    -36.78786321	     -0.43611792	      0.89976048	      0.03550399	     -3.31393560	      8.36913841	     12.35175277	    -23.76772000	     16.41685768	     -8.52663498	     22.08930735	    -11.15275819	     -6.60920460	     -5.64082406	      4.08937010	     11.83828978	     -5.87383473	     -2.25375622	      4.27406940
      2.60000000	     -1.11215960	     -0.85571893	    -37.59254561	     -0.42874609	      0.89813958	      0.03862322	     -3.74153424	      8.21751557	     12.80230726	    -24.11579023	     16.78632606	     -8.38779224	     22.08428875	    -11.13537899	     -5.95537976	     -4.66752433	      3.91179386	     13.15324085	     -5.96436317	     -2.09784165	      4.44700992
      2.61000000	     -1.12151456	     -0.97130544	    -38.39852277	     -0.42139047	      0.89664631	      0.04181343	     -4.20079112	      8.05194697	     13.26614557	    -24.49960536	     17.11756476	     -8.24909063	     22.16788159	    -11.14846951	     -5.35255091	     -4.40628588	      3.81440904	     13.99045567	     -6.12261191	     -1.97373983	      4.60670009
      2.62000000	     -1.09860042	     -1.08285516	    -39.18802841	     -0.41398835	      0.89527460	      0.04508390	     -4.67923934	      7.86324621	     13.73678512	    -24.89953786	     17.39168288	     -8.12341588	     22.36963299	    -11.16267908	     -4.81167377	     -4.84676823	      3.78908971	     14.26331322	     -6.30980210	     -1.89412785	      4.74773712
      2.63000000	     -1.03277295	     -1.20693740	    -39.94343114	     -0.40645566	      0.89405282	      0.04841928	     -5.18596642	      7.65170500	     14.15455061	    -25.33671031	     17.62688194	     -8.00388082	     22.63325626	    -11.16103602	     -4.29656434	     -5.87396371	      3.76539617	     14.20255308	     -6.54120365	     -1.84496718	      4.85566197
      2.64000000	     -0.96026407	     -1.33380761	    -40.68064261	     -0.39874204	      0.89296008	      0.05188920	     -5.69584920	      7.43450891	     14.55896381	    -25.79889290	     17.72629250	     -7.76366371	     22.96073521	    -11.15151737	     -3.82092226	     -7.37841385	      3.73308957	     13.65939343	     -6.75840886	     -1.81121658	      4.96411562
      2.65000000	     -0.86644080	     -1.42871203	    -41.33398292	     -0.39068812	      0.89198827	      0.05548647	     -6.22535316	      7.17435267	     14.89597058	    -26.23964559	     17.77206884	     -7.51894510	     23.30285035	    -11.05514668	     -3.24727528	     -9.16256322	      3.61430508	     12.81249204	     -6.93037756	     -1.82836773	      4.96205133
      2.66000000	     -0.76463381	     -1.51085126	    -41.92247905	     -0.38227738	      0.89116173	      0.05923581	     -6.77404516	      6.88628313	     15.13205856	    -26.65628350	     17.70969524	     -7.24274447	     23.60916401	    -10.89117485	     -2.55983683	    -11.07423081	      3.39395842	     11.83655967	     -7.05324545	     -1.86803659	      4.92332883
      2.67000000	     -0.66248200	     -1.54971876	    -42.44811816	     -0.37355042	      0.89046242	      0.06309856	     -7.29221003	      6.56025193	     15.29062835	    -27.08690128	     17.50939760	     -6.91276206	     23.87088116	    -10.63335140	     -1.75866370	    -12.97167659	      3.02870405	     10.79529979	     -7.10627077	     -1.94309539	      4.77807208
